# xmcd
#
# Track frame offsets: 
#        182
#        45610
#        58512
#        76525
#        124872
#        201802
#
# Disc length: 3302 seconds
#
# Revision: 7
# Processed by: cddbd v1.5.2PL0 Copyright (c) Steve Scherf et al.
# Submitted via: ExactAudioCopy v1.3
#
DISCID=440ce406
DTITLE=Franz Liszt - Great Liszt interpreters - Vol.1 - Earl Wild
DYEAR=1968
DGENRE=Piano
TTITLE0=Reminiscences de 'Robert le Diable' de Meyerbeer - Valse infer
TTITLE0=nale
TTITLE1=Gnomenreigen
TTITLE2=Mephisto Polka
TTITLE3=Mephisto Waltz N°1
TTITLE4=Réminiscences de 'Don Juan'  (Mozart)
TTITLE5=Waltz from Gounod's Faust
EXTD=YEAR: 1968
EXTT0=
EXTT1=
EXTT2=
EXTT3=
EXTT4=
EXTT5=
PLAYORDER=
